<mxfile host="Electron" modified="2023-09-11T03:23:10.625Z" agent="Mozilla/5.0 (Windows NT 10.0; Win64; x64) AppleWebKit/537.36 (KHTML, like Gecko) draw.io/21.6.5 Chrome/114.0.5735.243 Electron/25.3.1 Safari/537.36" etag="T-ydK5nLtr3IgS0mSpV5" version="21.6.5" type="device">
  <diagram name="Page-1" id="pc5E2ixPP8YHk-VGkzts">
    <mxGraphModel dx="2250" dy="715" grid="1" gridSize="10" guides="1" tooltips="1" connect="1" arrows="1" fold="1" page="1" pageScale="1" pageWidth="850" pageHeight="1100" math="0" shadow="0">
      <root>
        <mxCell id="0" />
        <mxCell id="1" parent="0" />
        <mxCell id="IE_fFF377AxmOuy6dgKx-1" value="Student&lt;br&gt;2.0" style="rounded=0;whiteSpace=wrap;html=1;" parent="1" vertex="1">
          <mxGeometry x="-130" y="290" width="120" height="60" as="geometry" />
        </mxCell>
        <mxCell id="IE_fFF377AxmOuy6dgKx-2" value="Authentication&lt;br&gt;1.0" style="ellipse;whiteSpace=wrap;html=1;" parent="1" vertex="1">
          <mxGeometry x="330" y="70" width="120" height="80" as="geometry" />
        </mxCell>
        <mxCell id="IE_fFF377AxmOuy6dgKx-3" value="Login" style="ellipse;whiteSpace=wrap;html=1;" parent="1" vertex="1">
          <mxGeometry x="40" y="280" width="120" height="80" as="geometry" />
        </mxCell>
        <mxCell id="IE_fFF377AxmOuy6dgKx-4" value="" style="endArrow=classic;html=1;rounded=0;exitX=1;exitY=0.5;exitDx=0;exitDy=0;entryX=0;entryY=0.5;entryDx=0;entryDy=0;" parent="1" source="IE_fFF377AxmOuy6dgKx-1" target="IE_fFF377AxmOuy6dgKx-3" edge="1">
          <mxGeometry width="50" height="50" relative="1" as="geometry">
            <mxPoint x="410" y="320" as="sourcePoint" />
            <mxPoint x="460" y="270" as="targetPoint" />
          </mxGeometry>
        </mxCell>
        <mxCell id="IE_fFF377AxmOuy6dgKx-6" value="Details" style="endArrow=block;endSize=16;endFill=0;html=1;rounded=0;exitX=0.5;exitY=0;exitDx=0;exitDy=0;entryX=0;entryY=0.5;entryDx=0;entryDy=0;" parent="1" source="IE_fFF377AxmOuy6dgKx-3" target="IE_fFF377AxmOuy6dgKx-2" edge="1">
          <mxGeometry x="-0.022" y="21" width="160" relative="1" as="geometry">
            <mxPoint x="350" y="300" as="sourcePoint" />
            <mxPoint x="510" y="300" as="targetPoint" />
            <mxPoint as="offset" />
          </mxGeometry>
        </mxCell>
        <mxCell id="IE_fFF377AxmOuy6dgKx-7" value="User Details" style="endArrow=block;endSize=16;endFill=0;html=1;rounded=0;entryX=1;entryY=0.5;entryDx=0;entryDy=0;exitX=0;exitY=0.5;exitDx=0;exitDy=0;" parent="1" target="IE_fFF377AxmOuy6dgKx-2" edge="1" source="VEWJcqNSV40qIhpfwmen-1">
          <mxGeometry width="160" relative="1" as="geometry">
            <mxPoint x="750" y="110" as="sourcePoint" />
            <mxPoint x="510" y="300" as="targetPoint" />
          </mxGeometry>
        </mxCell>
        <mxCell id="IE_fFF377AxmOuy6dgKx-8" value="Company&lt;br&gt;3.0" style="rounded=0;whiteSpace=wrap;html=1;" parent="1" vertex="1">
          <mxGeometry x="840" y="290" width="120" height="60" as="geometry" />
        </mxCell>
        <mxCell id="IE_fFF377AxmOuy6dgKx-9" value="Register / Login" style="ellipse;whiteSpace=wrap;html=1;" parent="1" vertex="1">
          <mxGeometry x="620" y="280" width="120" height="80" as="geometry" />
        </mxCell>
        <mxCell id="IE_fFF377AxmOuy6dgKx-10" value="" style="endArrow=classic;html=1;rounded=0;exitX=0;exitY=0.5;exitDx=0;exitDy=0;" parent="1" source="IE_fFF377AxmOuy6dgKx-8" edge="1">
          <mxGeometry width="50" height="50" relative="1" as="geometry">
            <mxPoint x="1240" y="320" as="sourcePoint" />
            <mxPoint x="740" y="320" as="targetPoint" />
          </mxGeometry>
        </mxCell>
        <mxCell id="IE_fFF377AxmOuy6dgKx-12" value="Details" style="endArrow=block;endSize=16;endFill=0;html=1;rounded=0;exitX=0.5;exitY=0;exitDx=0;exitDy=0;entryX=1;entryY=0.5;entryDx=0;entryDy=0;" parent="1" source="IE_fFF377AxmOuy6dgKx-9" target="IE_fFF377AxmOuy6dgKx-2" edge="1">
          <mxGeometry x="-0.2738" y="-23" width="160" relative="1" as="geometry">
            <mxPoint x="110" y="290" as="sourcePoint" />
            <mxPoint x="340" y="120" as="targetPoint" />
            <mxPoint as="offset" />
          </mxGeometry>
        </mxCell>
        <mxCell id="IE_fFF377AxmOuy6dgKx-13" value="Student Dashboard" style="endArrow=block;endSize=16;endFill=0;html=1;rounded=0;exitX=0;exitY=1;exitDx=0;exitDy=0;entryX=1;entryY=0;entryDx=0;entryDy=0;" parent="1" source="IE_fFF377AxmOuy6dgKx-2" target="IE_fFF377AxmOuy6dgKx-3" edge="1">
          <mxGeometry x="-0.022" y="21" width="160" relative="1" as="geometry">
            <mxPoint x="110" y="290" as="sourcePoint" />
            <mxPoint x="340" y="120" as="targetPoint" />
            <mxPoint as="offset" />
          </mxGeometry>
        </mxCell>
        <mxCell id="IE_fFF377AxmOuy6dgKx-14" value="Company Dashboard" style="endArrow=block;endSize=16;endFill=0;html=1;rounded=0;exitX=1;exitY=1;exitDx=0;exitDy=0;entryX=0;entryY=0;entryDx=0;entryDy=0;" parent="1" source="IE_fFF377AxmOuy6dgKx-2" target="IE_fFF377AxmOuy6dgKx-9" edge="1">
          <mxGeometry x="-0.2422" y="-17" width="160" relative="1" as="geometry">
            <mxPoint x="358" y="148" as="sourcePoint" />
            <mxPoint x="152" y="302" as="targetPoint" />
            <mxPoint as="offset" />
          </mxGeometry>
        </mxCell>
        <mxCell id="IE_fFF377AxmOuy6dgKx-15" value="CV" style="ellipse;whiteSpace=wrap;html=1;" parent="1" vertex="1">
          <mxGeometry x="90" y="430" width="120" height="80" as="geometry" />
        </mxCell>
        <mxCell id="IE_fFF377AxmOuy6dgKx-16" value="Portfolio" style="ellipse;whiteSpace=wrap;html=1;" parent="1" vertex="1">
          <mxGeometry x="170" y="552" width="120" height="80" as="geometry" />
        </mxCell>
        <mxCell id="IE_fFF377AxmOuy6dgKx-17" value="Upload" style="endArrow=block;endSize=16;endFill=0;html=1;rounded=0;exitX=0.583;exitY=1;exitDx=0;exitDy=0;entryX=0.5;entryY=0;entryDx=0;entryDy=0;exitPerimeter=0;" parent="1" source="IE_fFF377AxmOuy6dgKx-3" target="IE_fFF377AxmOuy6dgKx-15" edge="1">
          <mxGeometry x="-0.022" y="21" width="160" relative="1" as="geometry">
            <mxPoint x="110" y="290" as="sourcePoint" />
            <mxPoint x="340" y="120" as="targetPoint" />
            <mxPoint as="offset" />
          </mxGeometry>
        </mxCell>
        <mxCell id="IE_fFF377AxmOuy6dgKx-18" value="Create" style="endArrow=block;endSize=16;endFill=0;html=1;rounded=0;exitX=1;exitY=1;exitDx=0;exitDy=0;entryX=0.5;entryY=0;entryDx=0;entryDy=0;" parent="1" source="IE_fFF377AxmOuy6dgKx-15" target="IE_fFF377AxmOuy6dgKx-16" edge="1">
          <mxGeometry x="-0.022" y="21" width="160" relative="1" as="geometry">
            <mxPoint x="170" y="330" as="sourcePoint" />
            <mxPoint x="270" y="330" as="targetPoint" />
            <mxPoint as="offset" />
          </mxGeometry>
        </mxCell>
        <mxCell id="IE_fFF377AxmOuy6dgKx-19" value="Internship" style="ellipse;whiteSpace=wrap;html=1;" parent="1" vertex="1">
          <mxGeometry x="320" y="180" width="120" height="80" as="geometry" />
        </mxCell>
        <mxCell id="IE_fFF377AxmOuy6dgKx-20" value="Announces" style="endArrow=block;endSize=16;endFill=0;html=1;rounded=0;exitX=0;exitY=0.5;exitDx=0;exitDy=0;entryX=1;entryY=0.5;entryDx=0;entryDy=0;" parent="1" source="IE_fFF377AxmOuy6dgKx-9" target="IE_fFF377AxmOuy6dgKx-19" edge="1">
          <mxGeometry x="-0.1111" y="-20" width="160" relative="1" as="geometry">
            <mxPoint x="170" y="330" as="sourcePoint" />
            <mxPoint x="530" y="320" as="targetPoint" />
            <mxPoint as="offset" />
          </mxGeometry>
        </mxCell>
        <mxCell id="IE_fFF377AxmOuy6dgKx-21" value="Round" style="ellipse;whiteSpace=wrap;html=1;" parent="1" vertex="1">
          <mxGeometry x="320" y="310" width="120" height="80" as="geometry" />
        </mxCell>
        <mxCell id="IE_fFF377AxmOuy6dgKx-22" value="Declares New" style="endArrow=block;endSize=16;endFill=0;html=1;rounded=0;exitX=0.5;exitY=1;exitDx=0;exitDy=0;entryX=0.5;entryY=0;entryDx=0;entryDy=0;" parent="1" source="IE_fFF377AxmOuy6dgKx-19" target="IE_fFF377AxmOuy6dgKx-21" edge="1">
          <mxGeometry x="-0.1111" y="-20" width="160" relative="1" as="geometry">
            <mxPoint x="630" y="330" as="sourcePoint" />
            <mxPoint x="540" y="330" as="targetPoint" />
            <mxPoint as="offset" />
          </mxGeometry>
        </mxCell>
        <mxCell id="IE_fFF377AxmOuy6dgKx-23" value="Applies" style="endArrow=block;endSize=16;endFill=0;html=1;rounded=0;exitX=1;exitY=0.5;exitDx=0;exitDy=0;entryX=0;entryY=0.5;entryDx=0;entryDy=0;" parent="1" source="IE_fFF377AxmOuy6dgKx-3" target="IE_fFF377AxmOuy6dgKx-21" edge="1">
          <mxGeometry x="-0.1111" y="-20" width="160" relative="1" as="geometry">
            <mxPoint x="390" y="290" as="sourcePoint" />
            <mxPoint x="390" y="340" as="targetPoint" />
            <mxPoint as="offset" />
          </mxGeometry>
        </mxCell>
        <mxCell id="IE_fFF377AxmOuy6dgKx-24" value="CG" style="ellipse;whiteSpace=wrap;html=1;" parent="1" vertex="1">
          <mxGeometry x="520" y="400" width="120" height="80" as="geometry" />
        </mxCell>
        <mxCell id="IE_fFF377AxmOuy6dgKx-25" value="Restricts" style="endArrow=block;endSize=16;endFill=0;html=1;rounded=0;exitX=1;exitY=0.5;exitDx=0;exitDy=0;entryX=0;entryY=0;entryDx=0;entryDy=0;" parent="1" source="IE_fFF377AxmOuy6dgKx-21" target="IE_fFF377AxmOuy6dgKx-24" edge="1">
          <mxGeometry x="-0.1754" y="18" width="160" relative="1" as="geometry">
            <mxPoint x="170" y="330" as="sourcePoint" />
            <mxPoint x="330" y="360" as="targetPoint" />
            <mxPoint as="offset" />
          </mxGeometry>
        </mxCell>
        <mxCell id="IE_fFF377AxmOuy6dgKx-26" value="Notification" style="endArrow=block;endSize=16;endFill=0;html=1;rounded=0;exitX=0;exitY=0.5;exitDx=0;exitDy=0;entryX=1;entryY=1;entryDx=0;entryDy=0;" parent="1" source="IE_fFF377AxmOuy6dgKx-24" target="IE_fFF377AxmOuy6dgKx-3" edge="1">
          <mxGeometry x="-0.3633" y="-1" width="160" relative="1" as="geometry">
            <mxPoint x="450" y="360" as="sourcePoint" />
            <mxPoint x="548" y="422" as="targetPoint" />
            <mxPoint as="offset" />
          </mxGeometry>
        </mxCell>
        <mxCell id="IE_fFF377AxmOuy6dgKx-27" value="Result" style="ellipse;whiteSpace=wrap;html=1;" parent="1" vertex="1">
          <mxGeometry x="660" y="480" width="120" height="80" as="geometry" />
        </mxCell>
        <mxCell id="IE_fFF377AxmOuy6dgKx-28" value="" style="endArrow=block;endSize=16;endFill=0;html=1;rounded=0;exitX=1;exitY=1;exitDx=0;exitDy=0;entryX=0;entryY=0.5;entryDx=0;entryDy=0;" parent="1" source="IE_fFF377AxmOuy6dgKx-19" target="IE_fFF377AxmOuy6dgKx-34" edge="1">
          <mxGeometry x="-0.2746" width="160" relative="1" as="geometry">
            <mxPoint x="450" y="360" as="sourcePoint" />
            <mxPoint x="548" y="422" as="targetPoint" />
            <mxPoint as="offset" />
          </mxGeometry>
        </mxCell>
        <mxCell id="IE_fFF377AxmOuy6dgKx-29" value="Notification" style="endArrow=block;endSize=16;endFill=0;html=1;rounded=0;exitX=0;exitY=0.5;exitDx=0;exitDy=0;entryX=1;entryY=1;entryDx=0;entryDy=0;" parent="1" source="IE_fFF377AxmOuy6dgKx-27" target="IE_fFF377AxmOuy6dgKx-3" edge="1">
          <mxGeometry x="-0.2746" width="160" relative="1" as="geometry">
            <mxPoint x="432" y="258" as="sourcePoint" />
            <mxPoint x="840" y="510" as="targetPoint" />
            <mxPoint as="offset" />
          </mxGeometry>
        </mxCell>
        <mxCell id="IE_fFF377AxmOuy6dgKx-30" value="Testimonial" style="ellipse;whiteSpace=wrap;html=1;" parent="1" vertex="1">
          <mxGeometry x="300" y="520" width="120" height="80" as="geometry" />
        </mxCell>
        <mxCell id="IE_fFF377AxmOuy6dgKx-31" value="Requests" style="endArrow=block;endSize=16;endFill=0;html=1;rounded=0;exitX=1;exitY=1;exitDx=0;exitDy=0;entryX=0;entryY=0;entryDx=0;entryDy=0;" parent="1" source="IE_fFF377AxmOuy6dgKx-3" target="IE_fFF377AxmOuy6dgKx-30" edge="1">
          <mxGeometry x="-0.022" y="21" width="160" relative="1" as="geometry">
            <mxPoint x="120" y="370" as="sourcePoint" />
            <mxPoint x="120" y="420" as="targetPoint" />
            <mxPoint as="offset" />
          </mxGeometry>
        </mxCell>
        <mxCell id="IE_fFF377AxmOuy6dgKx-32" value="Account Ban" style="ellipse;whiteSpace=wrap;html=1;" parent="1" vertex="1">
          <mxGeometry x="788" y="552" width="120" height="80" as="geometry" />
        </mxCell>
        <mxCell id="IE_fFF377AxmOuy6dgKx-33" value="Requests" style="endArrow=block;endSize=16;endFill=0;html=1;rounded=0;exitX=0.5;exitY=1;exitDx=0;exitDy=0;entryX=0.5;entryY=0;entryDx=0;entryDy=0;" parent="1" source="IE_fFF377AxmOuy6dgKx-8" target="IE_fFF377AxmOuy6dgKx-32" edge="1">
          <mxGeometry x="-0.022" y="21" width="160" relative="1" as="geometry">
            <mxPoint x="630" y="380" as="sourcePoint" />
            <mxPoint x="608" y="452" as="targetPoint" />
            <mxPoint as="offset" />
          </mxGeometry>
        </mxCell>
        <mxCell id="IE_fFF377AxmOuy6dgKx-34" value="Shortlisting" style="ellipse;whiteSpace=wrap;html=1;" parent="1" vertex="1">
          <mxGeometry x="690" y="360" width="120" height="80" as="geometry" />
        </mxCell>
        <mxCell id="IE_fFF377AxmOuy6dgKx-35" value="" style="endArrow=block;endSize=16;endFill=0;html=1;rounded=0;exitX=0.5;exitY=1;exitDx=0;exitDy=0;entryX=0.5;entryY=0;entryDx=0;entryDy=0;" parent="1" source="IE_fFF377AxmOuy6dgKx-34" target="IE_fFF377AxmOuy6dgKx-27" edge="1">
          <mxGeometry x="-0.1754" y="18" width="160" relative="1" as="geometry">
            <mxPoint x="450" y="360" as="sourcePoint" />
            <mxPoint x="548" y="422" as="targetPoint" />
            <mxPoint as="offset" />
          </mxGeometry>
        </mxCell>
        <mxCell id="IE_fFF377AxmOuy6dgKx-36" value="Staff&lt;br&gt;4.2" style="rounded=0;whiteSpace=wrap;html=1;" parent="1" vertex="1">
          <mxGeometry x="20" y="740" width="120" height="60" as="geometry" />
        </mxCell>
        <mxCell id="IE_fFF377AxmOuy6dgKx-37" value="Login&lt;br&gt;4.1" style="ellipse;whiteSpace=wrap;html=1;" parent="1" vertex="1">
          <mxGeometry x="300" y="750" width="120" height="80" as="geometry" />
        </mxCell>
        <mxCell id="IE_fFF377AxmOuy6dgKx-38" value="" style="endArrow=block;endSize=16;endFill=0;html=1;rounded=0;exitX=1;exitY=0.5;exitDx=0;exitDy=0;entryX=0;entryY=0.5;entryDx=0;entryDy=0;" parent="1" source="IE_fFF377AxmOuy6dgKx-36" target="IE_fFF377AxmOuy6dgKx-37" edge="1">
          <mxGeometry x="-0.022" y="21" width="160" relative="1" as="geometry">
            <mxPoint x="120" y="500" as="sourcePoint" />
            <mxPoint x="120" y="550" as="targetPoint" />
            <mxPoint as="offset" />
          </mxGeometry>
        </mxCell>
        <mxCell id="IE_fFF377AxmOuy6dgKx-39" value="Approves" style="endArrow=block;endSize=16;endFill=0;html=1;rounded=0;exitX=0.5;exitY=0;exitDx=0;exitDy=0;entryX=0.5;entryY=1;entryDx=0;entryDy=0;" parent="1" source="IE_fFF377AxmOuy6dgKx-37" target="IE_fFF377AxmOuy6dgKx-30" edge="1">
          <mxGeometry x="-0.022" y="21" width="160" relative="1" as="geometry">
            <mxPoint x="120" y="500" as="sourcePoint" />
            <mxPoint x="120" y="550" as="targetPoint" />
            <mxPoint as="offset" />
          </mxGeometry>
        </mxCell>
        <mxCell id="IE_fFF377AxmOuy6dgKx-40" value="Approves" style="endArrow=block;endSize=16;endFill=0;html=1;rounded=0;exitX=1;exitY=0;exitDx=0;exitDy=0;entryX=0;entryY=1;entryDx=0;entryDy=0;" parent="1" source="IE_fFF377AxmOuy6dgKx-37" target="IE_fFF377AxmOuy6dgKx-32" edge="1">
          <mxGeometry x="-0.022" y="21" width="160" relative="1" as="geometry">
            <mxPoint x="435" y="710" as="sourcePoint" />
            <mxPoint x="370" y="610" as="targetPoint" />
            <mxPoint as="offset" />
          </mxGeometry>
        </mxCell>
        <mxCell id="IE_fFF377AxmOuy6dgKx-41" value="Register User" style="endArrow=block;endSize=16;endFill=0;html=1;rounded=0;exitX=0;exitY=0.5;exitDx=0;exitDy=0;entryX=0.5;entryY=1;entryDx=0;entryDy=0;" parent="1" source="IE_fFF377AxmOuy6dgKx-37" target="IE_fFF377AxmOuy6dgKx-1" edge="1">
          <mxGeometry x="-0.022" y="21" width="160" relative="1" as="geometry">
            <mxPoint x="-180" y="390" as="sourcePoint" />
            <mxPoint x="190" y="830" as="targetPoint" />
            <mxPoint as="offset" />
          </mxGeometry>
        </mxCell>
        <mxCell id="IE_fFF377AxmOuy6dgKx-42" value="Upload CG" style="endArrow=block;endSize=16;endFill=0;html=1;rounded=0;exitX=0;exitY=0;exitDx=0;exitDy=0;entryX=0.5;entryY=1;entryDx=0;entryDy=0;" parent="1" source="IE_fFF377AxmOuy6dgKx-37" target="IE_fFF377AxmOuy6dgKx-16" edge="1">
          <mxGeometry x="0.1712" y="8" width="160" relative="1" as="geometry">
            <mxPoint x="310" y="800" as="sourcePoint" />
            <mxPoint x="-60" y="360" as="targetPoint" />
            <mxPoint x="1" as="offset" />
          </mxGeometry>
        </mxCell>
        <mxCell id="IE_fFF377AxmOuy6dgKx-43" value="" style="endArrow=block;startArrow=block;endFill=1;startFill=1;html=1;rounded=0;exitX=1;exitY=0.5;exitDx=0;exitDy=0;entryX=0;entryY=0.5;entryDx=0;entryDy=0;" parent="1" source="IE_fFF377AxmOuy6dgKx-30" edge="1" target="VEWJcqNSV40qIhpfwmen-7">
          <mxGeometry width="160" relative="1" as="geometry">
            <mxPoint x="410" y="480" as="sourcePoint" />
            <mxPoint x="570" y="560" as="targetPoint" />
          </mxGeometry>
        </mxCell>
        <mxCell id="IE_fFF377AxmOuy6dgKx-46" value="&lt;span style=&quot;font-weight: normal;&quot;&gt;FIlter / add / delete&lt;/span&gt;" style="text;align=center;fontStyle=1;verticalAlign=middle;spacingLeft=3;spacingRight=3;strokeColor=none;rotatable=0;points=[[0,0.5],[1,0.5]];portConstraint=eastwest;html=1;" parent="1" vertex="1">
          <mxGeometry x="470" y="552" width="80" height="26" as="geometry" />
        </mxCell>
        <mxCell id="VEWJcqNSV40qIhpfwmen-1" value="Database" style="text;align=center;fontStyle=1;verticalAlign=middle;spacingLeft=3;spacingRight=3;strokeColor=none;rotatable=0;points=[[0,0.5],[1,0.5]];portConstraint=eastwest;html=1;" vertex="1" parent="1">
          <mxGeometry x="700" y="87.88" width="130" height="43" as="geometry" />
        </mxCell>
        <mxCell id="VEWJcqNSV40qIhpfwmen-2" value="" style="endArrow=none;html=1;rounded=0;" edge="1" parent="1">
          <mxGeometry relative="1" as="geometry">
            <mxPoint x="710" y="87.88" as="sourcePoint" />
            <mxPoint x="870" y="87.88" as="targetPoint" />
          </mxGeometry>
        </mxCell>
        <mxCell id="VEWJcqNSV40qIhpfwmen-3" value="" style="endArrow=none;html=1;rounded=0;" edge="1" parent="1">
          <mxGeometry relative="1" as="geometry">
            <mxPoint x="710" y="130.88" as="sourcePoint" />
            <mxPoint x="870" y="130.88" as="targetPoint" />
          </mxGeometry>
        </mxCell>
        <mxCell id="VEWJcqNSV40qIhpfwmen-7" value="Database" style="text;align=center;fontStyle=1;verticalAlign=middle;spacingLeft=3;spacingRight=3;strokeColor=none;rotatable=0;points=[[0,0.5],[1,0.5]];portConstraint=eastwest;html=1;" vertex="1" parent="1">
          <mxGeometry x="570" y="569.87" width="130" height="43" as="geometry" />
        </mxCell>
        <mxCell id="VEWJcqNSV40qIhpfwmen-8" value="" style="endArrow=none;html=1;rounded=0;" edge="1" parent="1">
          <mxGeometry relative="1" as="geometry">
            <mxPoint x="580" y="569.87" as="sourcePoint" />
            <mxPoint x="680" y="570" as="targetPoint" />
          </mxGeometry>
        </mxCell>
        <mxCell id="VEWJcqNSV40qIhpfwmen-9" value="" style="endArrow=none;html=1;rounded=0;" edge="1" parent="1">
          <mxGeometry relative="1" as="geometry">
            <mxPoint x="580" y="615.74" as="sourcePoint" />
            <mxPoint x="680" y="616" as="targetPoint" />
          </mxGeometry>
        </mxCell>
      </root>
    </mxGraphModel>
  </diagram>
</mxfile>
